<?xml version="1.0" encoding="UTF-8"?>
<svg version="1.1" xmlns="http://www.w3.org/2000/svg" width="1024" height="1024">
<path d="M0 0 C337.92 0 675.84 0 1024 0 C1024 337.92 1024 675.84 1024 1024 C686.08 1024 348.16 1024 0 1024 C0 686.08 0 348.16 0 0 Z " fill="#081D33" transform="translate(0,0)"/>
<path d="M0 0 C176.16865417 0 176.16865417 0 221 43 C222.33804688 44.24330078 222.33804688 44.24330078 223.703125 45.51171875 C251.54139682 72.14470226 265.29285168 111.81333278 266.26396179 149.80641174 C266.32654332 153.76720251 266.33058413 157.72633187 266.3125 161.6875 C266.30976578 162.93632965 266.30976578 162.93632965 266.30697632 164.21038818 C266.25988391 177.01246752 265.72466806 189.44913543 263 202 C262.82307617 202.8357959 262.64615234 203.6715918 262.46386719 204.53271484 C253.9984924 243.51876297 233.97660214 277.06243245 200.16552734 299.20117188 C141.16291548 336.19526548 64.76841119 323 0 323 C0 216.41 0 109.82 0 0 Z " fill="#FBFBFB" transform="translate(517,259)"/>
<path d="M0 0 C19.22064938 18.38216467 25.02241698 39.96023418 26.640625 65.8515625 C6.510625 65.8515625 -13.619375 65.8515625 -34.359375 65.8515625 C-35.349375 62.3865625 -35.349375 62.3865625 -36.359375 58.8515625 C-40.82045409 46.85145455 -46.85107019 40.44955661 -58.5 34.81640625 C-68.42400078 30.80243032 -78.65911855 30.51270344 -89.234375 30.5390625 C-90.51957031 30.52294922 -91.80476563 30.50683594 -93.12890625 30.49023438 C-106.43200022 30.48348154 -120.02086233 32.74125994 -130.171875 42.0390625 C-137.26431519 49.90461229 -139.31070682 57.62268403 -138.78125 68.06640625 C-137.9212403 75.78260441 -134.80393675 81.33194921 -129.359375 86.8515625 C-117.42738603 94.93879947 -102.56084171 97.83210008 -88.78253174 101.228302 C-74.1969896 104.83154223 -59.78786852 109.05402066 -45.36865234 113.26635742 C-43.542533 113.79821746 -41.71471603 114.32424008 -39.88671875 114.84960938 C-15.43453035 121.91323143 6.7759845 132.91939536 19.953125 155.8515625 C32.60055814 178.79989244 34.58281101 207.58716141 27.640625 232.8515625 C26.02340863 238.03561866 23.94168909 242.93771381 21.640625 247.8515625 C21.19976562 248.81449219 20.75890625 249.77742188 20.3046875 250.76953125 C9.63319705 272.14335462 -10.25136497 285.80305944 -32.33740234 293.38476562 C-42.16874997 296.58110517 -52.10815358 298.58567879 -62.359375 299.8515625 C-63.11951904 299.94655029 -63.87966309 300.04153809 -64.6628418 300.1394043 C-102.37607139 304.40046519 -146.98835108 300.11955019 -178.0078125 276.109375 C-195.46787792 261.98473675 -207.94206767 242.16117556 -211.484375 219.7265625 C-211.65195312 218.71335937 -211.81953125 217.70015625 -211.9921875 216.65625 C-212.49840549 211.41096997 -212.359375 206.12121328 -212.359375 200.8515625 C-191.239375 200.8515625 -170.119375 200.8515625 -148.359375 200.8515625 C-147.369375 205.1415625 -146.379375 209.4315625 -145.359375 213.8515625 C-140.16272894 226.13932811 -132.40273039 232.44047029 -120.40234375 237.6328125 C-100.61028565 245.55979854 -72.30291755 244.14697951 -52.546875 236.5390625 C-42.7019409 231.86618533 -38.0764939 225.57966645 -34.046875 215.6015625 C-32.10244203 204.99556446 -32.96593852 196.15455956 -38.5390625 186.890625 C-50.20600739 171.0815695 -81.59686964 167.63240966 -99.515625 163.7109375 C-130.6472065 156.82677396 -163.14470696 146.64870054 -186.359375 123.8515625 C-186.91109375 123.31273437 -187.4628125 122.77390625 -188.03125 122.21875 C-203.74117021 105.41082461 -207.18473641 82.24375597 -206.45996094 60.14257812 C-205.41945263 36.4432336 -195.97695264 17.48072033 -179.359375 0.8515625 C-178.50601563 -0.025 -177.65265625 -0.9015625 -176.7734375 -1.8046875 C-169.47633895 -8.90456717 -161.34076936 -13.54531499 -152.359375 -18.1484375 C-151.58207031 -18.56867188 -150.80476563 -18.98890625 -150.00390625 -19.421875 C-105.70059717 -41.52931466 -36.12316057 -32.89360647 0 0 Z " fill="#FBFBFB" transform="translate(469.359375,286.1484375)"/>
<path d="M0 0 C70.4789916 0 70.4789916 0 88 9 C88.96808594 9.49113281 89.93617188 9.98226563 90.93359375 10.48828125 C112.60740308 22.29754797 126.86715409 41.34135115 134.375 64.625 C134.61379883 65.36379395 134.85259766 66.10258789 135.09863281 66.86376953 C138.67748409 78.73198618 139.41011501 90.73748644 139.375 103.0625 C139.37445618 103.78477783 139.37391235 104.50705566 139.37335205 105.2512207 C139.33215802 117.19287501 138.4160286 128.50808998 135 140 C134.77505859 140.75684082 134.55011719 141.51368164 134.31835938 142.29345703 C130.13112672 155.90196316 124.22436354 167.08481626 115 178 C114.54238281 178.61488281 114.08476563 179.22976563 113.61328125 179.86328125 C102.38535007 194.53039856 83.07832122 200.34035974 66 204 C44.22 204 22.44 204 0 204 C0 136.68 0 69.36 0 0 Z " fill="#0A1E34" transform="translate(581,318)"/>
<path d="M0 0 C38.85234899 0 38.85234899 0 50.96875 10.74609375 C58.48245151 18.403065 60.37267315 27.65406975 60.5 38.0625 C60.33512081 49.58731616 57.50741593 57.50134077 49.359375 65.90234375 C36.0418828 77.74256447 16.22338698 74 0 74 C0 49.58 0 25.16 0 0 Z " fill="#F9F9FA" transform="translate(629,682)"/>
<path d="M0 0 C5.61 0 11.22 0 17 0 C24.07259088 17.30498948 31.08247389 34.63235235 38 52 C40.7776951 48.69047106 42.21120384 45.32241145 43.76171875 41.3046875 C44.28782915 39.95654193 44.81437562 38.60856646 45.34130859 37.26074219 C45.61279724 36.56106323 45.88428589 35.86138428 46.16400146 35.14050293 C47.54474384 31.60522988 48.96994484 28.08809716 50.39453125 24.5703125 C50.6757785 23.87500427 50.95702576 23.17969604 51.24679565 22.46331787 C51.81486819 21.05924666 52.38323727 19.65529539 52.9519043 18.25146484 C53.53561115 16.80917074 54.11825929 15.36644779 54.69995117 13.92333984 C55.55406696 11.80467979 56.41142386 9.68735844 57.26953125 7.5703125 C57.52990677 6.92256866 57.79028229 6.27482483 58.05854797 5.60745239 C59.88594747 1.11405253 59.88594747 1.11405253 61 0 C66.28 0 71.56 0 77 0 C77 24.42 77 48.84 77 74 C72.71 74 68.42 74 64 74 C63.67 57.83 63.34 41.66 63 25 C60.6075 31.043125 58.215 37.08625 55.75 43.3125 C55.00331055 45.19622314 54.25662109 47.07994629 53.48730469 49.02075195 C50.20822288 57.30799674 46.98194323 65.59983518 44 74 C40.7 74 37.4 74 34 74 C30.13464568 65.77233224 26.72388907 57.41100523 23.4375 48.9375 C22.4989658 46.52984348 21.56016835 44.12228955 20.62109375 41.71484375 C20.2130249 40.66417725 19.80495605 39.61351074 19.38452148 38.53100586 C17.6124711 34.01166805 15.80285508 29.50713771 14 25 C13.67 41.17 13.34 57.34 13 74 C8.71 74 4.42 74 0 74 C0 49.58 0 25.16 0 0 Z " fill="#FCFDFD" transform="translate(348,682)"/>
<path d="M0 0 C5.28 0 10.56 0 16 0 C17.16402344 3.14595703 17.16402344 3.14595703 18.3515625 6.35546875 C19.44210186 9.29970407 20.53354797 12.24360291 21.625 15.1875 C21.91023529 15.95722137 22.19547058 16.72694275 22.48934937 17.51998901 C25.9511286 26.85757358 29.4392183 36.18442521 32.98046875 45.4921875 C33.30277466 46.34003311 33.62508057 47.18787872 33.95715332 48.06141663 C35.52699622 52.18940887 37.1008352 56.3158179 38.68017578 60.44018555 C39.25173978 61.94054972 39.82319728 63.44095447 40.39453125 64.94140625 C40.79202827 65.97338638 40.79202827 65.97338638 41.19755554 67.0262146 C43 71.77321041 43 71.77321041 43 74 C38.38 74 33.76 74 29 74 C26.29493443 67.75754099 24.12185289 62.73111735 23 56 C13.1 56 3.2 56 -7 56 C-7.99 59.3 -8.98 62.6 -10 66 C-10.97618706 68.67547565 -11.9677526 71.34564953 -13 74 C-17.62 74 -22.24 74 -27 74 C-26.2633112 69.57986718 -25.55638434 66.42734107 -23.98828125 62.37109375 C-23.56659668 61.27063721 -23.14491211 60.17018066 -22.71044922 59.03637695 C-22.24912598 57.84874756 -21.78780273 56.66111816 -21.3125 55.4375 C-20.83026724 54.18407805 -20.3486745 52.9304097 -19.86767578 51.67651367 C-19.09380465 49.65937801 -18.31948046 47.6424273 -17.54315186 45.62623596 C-15.40420923 40.0688572 -13.29327772 34.50118278 -11.19140625 28.9296875 C-10.8736171 28.08755203 -10.55582794 27.24541656 -10.22840881 26.37776184 C-8.96245974 23.02228009 -7.6969432 19.66663565 -6.43203735 16.3107605 C-5.54684224 13.96330326 -4.6602859 11.6163643 -3.7734375 9.26953125 C-3.37415794 8.2090004 -3.37415794 8.2090004 -2.96681213 7.12704468 C-1.11382784 2.22765568 -1.11382784 2.22765568 0 0 Z " fill="#FBFBFC" transform="translate(286,682)"/>
<path d="M0 0 C15.51 0 31.02 0 47 0 C47 3.96 47 7.92 47 12 C36.11 12 25.22 12 14 12 C14 18.27 14 24.54 14 31 C23.9 31 33.8 31 44 31 C44 34.96 44 38.92 44 43 C34.1 43 24.2 43 14 43 C14 49.27 14 55.54 14 62 C25.22 62 36.44 62 48 62 C48 65.96 48 69.92 48 74 C32.16 74 16.32 74 0 74 C0 49.58 0 25.16 0 0 Z " fill="#FCFCFC" transform="translate(709,682)"/>
<path d="M0 0 C3.16861944 2.46621612 5.33631269 5.200424 7.0859375 8.796875 C7.0859375 9.456875 7.0859375 10.116875 7.0859375 10.796875 C3.4559375 12.446875 -0.1740625 14.096875 -3.9140625 15.796875 C-4.6359375 15.03375 -5.3578125 14.270625 -6.1015625 13.484375 C-10.09858892 9.6649942 -12.7727657 7.63680352 -18.3515625 7.421875 C-22.53424859 7.60342732 -25.55854711 8.11246269 -28.9140625 10.796875 C-30.0425734 13.52266287 -30.59638231 15.90672361 -29.9140625 18.796875 C-25.2429456 23.98591909 -18.34871401 24.7767957 -11.83789062 26.33203125 C-3.81389911 28.41424267 2.378437 31.79597682 7.0859375 38.796875 C9.17579448 45.06644595 9.26676147 53.09321514 6.6484375 59.234375 C3.32791079 64.80391094 -2.31633671 67.6762874 -8.1015625 70.171875 C-17.61607326 71.73163086 -27.5444582 72.19802103 -35.9140625 66.796875 C-41.6668103 61.86733185 -44.82229963 57.30274473 -45.9140625 49.796875 C-44.31150142 49.29175256 -42.70694458 48.79295873 -41.1015625 48.296875 C-40.20824219 48.0184375 -39.31492188 47.74 -38.39453125 47.453125 C-35.9140625 46.796875 -35.9140625 46.796875 -32.9140625 46.796875 C-31.73828125 48.44140625 -31.73828125 48.44140625 -30.6015625 50.609375 C-28.25770156 54.5624539 -26.41776863 56.35568904 -21.9140625 57.796875 C-16.54569947 58.29394565 -11.98988063 57.45964301 -6.9140625 55.796875 C-5.70630044 52.17358881 -5.51365358 49.60075973 -5.9140625 45.796875 C-10.5950394 40.80000395 -16.96465926 39.84403424 -23.34570312 38.17382812 C-31.21583292 35.99395066 -38.3897546 32.93136054 -42.9140625 25.796875 C-45.51186243 20.47757039 -45.17128321 15.4543682 -43.9140625 9.796875 C-40.82633423 3.62141846 -35.5555974 -1.27545466 -29.2265625 -4.078125 C-19.33518915 -7.26704266 -8.7203833 -5.48138379 0 0 Z " fill="#FAFAFB" transform="translate(234.9140625,686.203125)"/>
<path d="M0 0 C15.51 0 31.02 0 47 0 C47 3.96 47 7.92 47 12 C35.78 12 24.56 12 13 12 C13 18.27 13 24.54 13 31 C23.56 31 34.12 31 45 31 C45 34.96 45 38.92 45 43 C34.44 43 23.88 43 13 43 C13 49.27 13 55.54 13 62 C24.55 62 36.1 62 48 62 C48 65.96 48 69.92 48 74 C32.16 74 16.32 74 0 74 C0 49.58 0 25.16 0 0 Z " fill="#FCFCFD" transform="translate(449,682)"/>
<path d="M0 0 C4.62 0 9.24 0 14 0 C17.5933555 8.39971304 20.8328222 16.87461843 23.85717773 25.49072266 C24.56213464 27.49895918 25.27184321 29.50546531 25.98242188 31.51171875 C28.7393323 39.31333376 31.41574498 47.13928854 34 55 C36.52159821 50.2644986 38.29690914 45.50183206 40 40.4375 C43.12881065 31.30323559 46.49941519 22.27109717 49.9375 13.25 C50.18846436 12.59127899 50.43942871 11.93255798 50.69799805 11.25387573 C52.12851126 7.50123849 53.56371781 3.75043668 55 0 C59.62 0 64.24 0 69 0 C67.05965159 7.57104301 64.69100375 14.70347305 61.75 21.9375 C58.80777599 29.30231605 56.00009869 36.68205273 53.4375 44.1875 C49.98736447 54.27321636 46.0393079 64.13779369 42 74 C37.05 74 32.1 74 27 74 C15.42480469 43.1328125 15.42480469 43.1328125 14.70640182 41.21704102 C14.2314759 39.95059217 13.75652334 38.68415332 13.28154373 37.41772461 C12.12039766 34.32168639 10.95980377 31.22544303 9.79998779 28.12890625 C7.87025058 22.97800384 5.93833226 17.82815757 3.98144531 12.6875 C3.55087326 11.55284302 3.55087326 11.55284302 3.11160278 10.39526367 C2.38692496 8.48783138 1.65872791 6.58173709 0.93017578 4.67578125 C0 2 0 2 0 0 Z " fill="#FAFBFB" transform="translate(773,682)"/>
<path d="M0 0 C19.14 0 38.28 0 58 0 C58 3.96 58 7.92 58 12 C50.74 12 43.48 12 36 12 C36 32.46 36 52.92 36 74 C31.38 74 26.76 74 22 74 C22 53.54 22 33.08 22 12 C14.74 12 7.48 12 0 12 C0 8.04 0 4.08 0 0 Z " fill="#F4F5F6" transform="translate(515,682)"/>
<path d="M0 0 C20.48275862 0 20.48275862 0 25.9921875 4.69921875 C31.96390831 11.00545504 34.11430908 16.75994196 34.4375 25.375 C34.24332699 32.35713797 33.0309257 38.47003569 28.38671875 43.87890625 C19.93091993 51.65974108 11.86626548 50 0 50 C0 33.5 0 17 0 0 Z " fill="#0B1D32" transform="translate(642,694)"/>
<path d="M0 0 C1.90376657 2.85564986 2.97147349 5.30852866 4.1640625 8.5078125 C4.56367188 9.57644531 4.96328125 10.64507813 5.375 11.74609375 C5.7875 12.86113281 6.2 13.97617187 6.625 15.125 C7.04523438 16.24777344 7.46546875 17.37054687 7.8984375 18.52734375 C11 26.85524046 11 26.85524046 11 28 C4.4 28 -2.2 28 -9 28 C-8.28784357 23.72706144 -7.61459336 20.54731541 -6.15234375 16.6015625 C-5.61577148 15.14169922 -5.61577148 15.14169922 -5.06835938 13.65234375 C-4.69517578 12.65332031 -4.32199219 11.65429688 -3.9375 10.625 C-3.37192383 9.09166016 -3.37192383 9.09166016 -2.79492188 7.52734375 C-1.86799899 5.01643873 -0.93623553 2.50744426 0 0 Z " fill="#0A1A2E" transform="translate(293,698)"/>
<path d="M0 0 C0.33 0 0.66 0 1 0 C1.19393875 2.14526099 1.37998676 4.29123677 1.5625 6.4375 C1.71912109 8.22994141 1.71912109 8.22994141 1.87890625 10.05859375 C1.93884766 11.51458984 1.93884766 11.51458984 2 13 C0.10974683 14.89025317 -2.6225923 14.13246908 -5.13549805 14.13867188 C-5.97765869 14.13416016 -6.81981934 14.12964844 -7.6875 14.125 C-8.53932861 14.12306641 -9.39115723 14.12113281 -10.26879883 14.11914062 C-17.54586861 14.07005875 -24.75140634 13.662188 -32 13 C-32 12.67 -32 12.34 -32 12 C-21.44 12 -10.88 12 0 12 C0 8.04 0 4.08 0 0 Z " fill="#152237" transform="translate(756,682)"/>
<path d="M0 0 C0.66 0 1.32 0 2 0 C2 3.96 2 7.92 2 12 C8.93 12 15.86 12 23 12 C23 12.33 23 12.66 23 13 C15.41 13.33 7.82 13.66 0 14 C0 9.38 0 4.76 0 0 Z " fill="#152237" transform="translate(513,682)"/>
<path d="M0 0 C0.66 0.33 1.32 0.66 2 1 C2.33 2.32 2.66 3.64 3 5 C-3.6 5 -10.2 5 -17 5 C-16.67 3.68 -16.34 2.36 -16 1 C-15.67 1.66 -15.34 2.32 -15 3 C-10.05 3 -5.1 3 0 3 C0 2.01 0 1.02 0 0 Z " fill="#040B18" transform="translate(301,721)"/>
<path d="M0 0 C0.66 0 1.32 0 2 0 C1.9131724 2.12577907 1.8050049 4.25069581 1.6875 6.375 C1.62949219 7.55835938 1.57148437 8.74171875 1.51171875 9.9609375 C1.34285156 10.96382813 1.17398438 11.96671875 1 13 C0.01 13.66 -0.98 14.32 -2 15 C-2.08226668 11.95613276 -1.97608217 9.92824652 -1 7 C-1 5.96875 -1 4.9375 -1 3.875 C-1 1 -1 1 0 0 Z " fill="#1C2739" transform="translate(718,431)"/>
<path d="M0 0 C2 2 2 2 2.125 5.625 C2.08375 6.73875 2.0425 7.8525 2 9 C1.01 9 0.02 9 -1 9 C-2.0326802 6.21176345 -2.04509293 5.1322726 -1.0625 2.25 C-0.711875 1.5075 -0.36125 0.765 0 0 Z " fill="#132237" transform="translate(409,709)"/>
<path d="M0 0 C0.99 0.33 1.98 0.66 3 1 C2 3 1 5 0 7 C-0.66 7 -1.32 7 -2 7 C-2.33 7.66 -2.66 8.32 -3 9 C-2.5020163 5.26512223 -2.12508244 3.18762365 0 0 Z " fill="#091424" transform="translate(404,724)"/>
<path d="M0 0 C2.31 0.66 4.62 1.32 7 2 C7 2.99 7 3.98 7 5 C4.36 4.34 1.72 3.68 -1 3 C-0.67 2.01 -0.34 1.02 0 0 Z " fill="#152235" transform="translate(434,400)"/>
<path d="M0 0 C3.36720387 1.39332574 4.9859524 2.9789286 7 6 C6.01 6.495 6.01 6.495 5 7 C3.29115995 5.37660195 1.62553283 3.70680947 0 2 C0 1.34 0 0.68 0 0 Z " fill="#222D3D" transform="translate(688,341)"/>
<path d="M0 0 C1.65 0 3.3 0 5 0 C4.34 2.31 3.68 4.62 3 7 C0.64046906 4.64046906 0.50858587 3.22104383 0 0 Z " fill="#1A2330" transform="translate(805,732)"/>
<path d="M0 0 C2.64 0.33 5.28 0.66 8 1 C6 3 6 3 2.875 3.125 C1.451875 3.063125 1.451875 3.063125 0 3 C0 2.01 0 1.02 0 0 Z " fill="#1E293B" transform="translate(372,450)"/>
</svg>
